{
	"asset":{
		"generator":"Khronos glTF Blender I/O v3.5.30",
		"version":"2.0"
	},
	"scene":0,
	"scenes":[
		{
			"name":"Scene",
			"nodes":[
				3
			]
		}
	],
	"nodes":[
		{
			"mesh":0,
			"name":"moss_rock_06-material",
			"translation":[
				0.87226402759552,
				-2.035074472427368,
				-0.5402587652206421
			]
		},
		{
			"children":[
				0
			],
			"name":"moss",
			"translation":[
				-0.87226402759552,
				2.0350749492645264,
				0.5402588844299316
			]
		},
		{
			"children":[
				1
			],
			"name":"Collada visual scene group"
		},
		{
			"children":[
				2
			],
			"name":"Sketchfab_model",
			"rotation":[
				-0.70710688829422,
				0,
				0,
				0.7071066498756409
			]
		}
	],
	"materials":[
		{
			"doubleSided":true,
			"name":"moss.002",
			"normalTexture":{
				"index":0
			},
			"pbrMetallicRoughness":{
				"baseColorTexture":{
					"index":1
				},
				"metallicFactor":0,
				"metallicRoughnessTexture":{
					"index":2
				}
			}
		}
	],
	"meshes":[
		{
			"name":"moss_rock_06-material.002",
			"primitives":[
				{
					"attributes":{
						"POSITION":0,
						"TEXCOORD_0":1,
						"NORMAL":2
					},
					"indices":3,
					"material":0
				}
			]
		}
	],
	"textures":[
		{
			"sampler":0,
			"source":0
		},
		{
			"sampler":0,
			"source":1
		},
		{
			"sampler":0,
			"source":2
		}
	],
	"images":[
		{
			"mimeType":"image/png",
			"name":"Image_2",
			"uri":"Image_2.png"
		},
		{
			"mimeType":"image/jpeg",
			"name":"Image_0",
			"uri":"Image_0.jpg"
		},
		{
			"mimeType":"image/png",
			"name":"Image_1",
			"uri":"Image_1.png"
		}
	],
	"accessors":[
		{
			"bufferView":0,
			"componentType":5126,
			"count":1448,
			"max":[
				0.9531834125518799,
				1.3499510288238525,
				0.6304798126220703
			],
			"min":[
				-0.8606677055358887,
				-1.6477240324020386,
				-0.5644751191139221
			],
			"type":"VEC3"
		},
		{
			"bufferView":1,
			"componentType":5126,
			"count":1448,
			"type":"VEC2"
		},
		{
			"bufferView":2,
			"componentType":5126,
			"count":1448,
			"type":"VEC3"
		},
		{
			"bufferView":3,
			"componentType":5123,
			"count":7488,
			"type":"SCALAR"
		}
	],
	"bufferViews":[
		{
			"buffer":0,
			"byteLength":17376,
			"byteOffset":0,
			"target":34962
		},
		{
			"buffer":0,
			"byteLength":11584,
			"byteOffset":17376,
			"target":34962
		},
		{
			"buffer":0,
			"byteLength":17376,
			"byteOffset":28960,
			"target":34962
		},
		{
			"buffer":0,
			"byteLength":14976,
			"byteOffset":46336,
			"target":34963
		}
	],
	"samplers":[
		{
			"magFilter":9729,
			"minFilter":9987
		}
	],
	"buffers":[
		{
			"byteLength":61312,
			"uri":"untitled.bin"
		}
	]
}
